<svg id="Layer_1" data-name="Layer 1" xmlns="http://www.w3.org/2000/svg" xmlns:xlink="http://www.w3.org/1999/xlink" width="586.6" height="579.45" viewBox="0 0 586.6 579.45">
  <defs>
    <linearGradient id="linear-gradient" x1="-3288.6" y1="335.83" x2="-3268.2" y2="335.83" gradientTransform="matrix(-1, 0, 0, 1, -2716.25, 0)" gradientUnits="userSpaceOnUse">
      <stop offset="0.01"/>
      <stop offset="1" stop-opacity="0"/>
    </linearGradient>
    <linearGradient id="linear-gradient-2" x1="279.45" y1="322.68" x2="294.36" y2="322.68" gradientTransform="matrix(1, 0, 0, 1, 0, 0)" xlink:href="#linear-gradient"/>
    <linearGradient id="linear-gradient-3" x1="418.16" y1="154.91" x2="443.28" y2="128.59" gradientUnits="userSpaceOnUse">
      <stop offset="0" stop-color="#ecc4d7"/>
      <stop offset="0.42" stop-color="#efd4d1"/>
      <stop offset="1" stop-color="#f2eac9"/>
    </linearGradient>
    <linearGradient id="linear-gradient-4" x1="413.28" y1="470.47" x2="413.39" y2="470.47" gradientTransform="matrix(1, 0, 0, -1, 0, 598)" xlink:href="#linear-gradient-3"/>
    <linearGradient id="linear-gradient-5" x1="422.42" y1="530.15" x2="435.48" y2="483.09" gradientTransform="matrix(1, 0, 0, -1, 0, 598)" xlink:href="#linear-gradient-3"/>
    <linearGradient id="linear-gradient-6" x1="453.01" y1="373.6" x2="541.87" y2="469.34" gradientUnits="userSpaceOnUse">
      <stop offset="0.01"/>
      <stop offset="0.13" stop-opacity="0.69"/>
      <stop offset="1" stop-opacity="0"/>
    </linearGradient>
    <linearGradient id="linear-gradient-7" x1="404.95" y1="475.28" x2="388.46" y2="382.75" xlink:href="#linear-gradient-6"/>
    <linearGradient id="linear-gradient-8" x1="444.96" y1="444.34" x2="441.97" y2="331.88" xlink:href="#linear-gradient-6"/>
    <linearGradient id="linear-gradient-9" x1="491.31" y1="209.72" x2="569.09" y2="209.72" gradientTransform="matrix(1, 0, 0, -1, 0, 598)" xlink:href="#linear-gradient-3"/>
    <linearGradient id="linear-gradient-10" x1="334.76" y1="202.77" x2="412.53" y2="202.77" gradientTransform="matrix(1, 0, 0, -1, 0, 598)" xlink:href="#linear-gradient-3"/>
    <linearGradient id="linear-gradient-11" x1="215.13" y1="332.24" x2="290.69" y2="332.24" xlink:href="#linear-gradient-3"/>
    <linearGradient id="linear-gradient-12" x1="556.14" y1="341.02" x2="643.19" y2="341.02" xlink:href="#linear-gradient-3"/>
    <linearGradient id="linear-gradient-13" x1="426.26" y1="355.93" x2="332.82" y2="283.79" gradientTransform="matrix(1, 0, 0, 1, 0, 0)" xlink:href="#linear-gradient"/>
    <linearGradient id="linear-gradient-14" x1="416.87" y1="323.73" x2="519.25" y2="303.11" gradientTransform="matrix(1, 0, 0, 1, 0, 0)" xlink:href="#linear-gradient"/>
    <linearGradient id="linear-gradient-15" x1="346.49" y1="356.23" x2="419.67" y2="303.67" xlink:href="#linear-gradient-6"/>
    <linearGradient id="linear-gradient-16" x1="436.57" y1="308.66" x2="486.04" y2="355.84" gradientTransform="matrix(1, 0, 0, 1, 0, 0)" xlink:href="#linear-gradient"/>
    <linearGradient id="linear-gradient-17" x1="423.02" y1="187.69" x2="434.7" y2="138.9" xlink:href="#linear-gradient-6"/>
    <linearGradient id="linear-gradient-18" x1="423.58" y1="610.87" x2="417.4" y2="490.29" xlink:href="#linear-gradient-6"/>
    <linearGradient id="linear-gradient-19" x1="427.09" y1="448.55" x2="429.84" y2="557.11" xlink:href="#linear-gradient-6"/>
  </defs>
  <title>Meditation</title>
  <path d="M283.2,120.9c-6.71,29.77-7.93,62.11-25.25,87.24-20.87,30.14-59.79,42.1-85.17,68.45-32.94,34.41-36.11,93.34-6.95,131,16,20.75,39.16,34.29,59.42,50.88,38.92,32.09,68,76.75,112.62,100.42,47.95,25.38,110.42,20.74,154.1-11.59,39.9-29.53,63.45-78.45,106.27-103.47,21.23-12.44,46.13-18.3,66.62-32.09,32.22-21.72,49.42-62.71,45-101.27s-29.16-73.7-62.72-93.34C628,206,604.59,198,594.46,178.25c-8.42-16.35-5.12-35.87-7.93-54A79.59,79.59,0,0,0,561,77.71c-29.28-25.87-73-26.23-111.64-20.62s-76.75,1.1-113,4C304.56,63.92,290.28,89.67,283.2,120.9Z" transform="translate(-128.65 -6.44)" fill="#9ab5d4" opacity="0.18" style="isolation: isolate"/>
  <g>
    <path d="M461.59,149.09c10.37,1.1,21,2.68,29.65,8.54a50.24,50.24,0,0,1,9.88,9.15,108.91,108.91,0,0,1,25.62,56.49c2.32,17.57.37,35.51,2.81,53,1.34,10.24,4.52,20.62,11.59,28.18,6.83,7.2,16.6,10.86,26,14.28a4.82,4.82,0,0,1,2.93,1.95c.73,1.34,0,3.05-.73,4.39l-12.81,23.79a5,5,0,0,1-2.08,2.44c-1.34.86-3.17.37-4.63-.12-12.94-4-26.36-8.42-36.12-17.69-15.37-14.64-18.3-37.7-20.26-58.81-1.58,20.74-3.17,41.36-4.88,62.1a9.59,9.59,0,0,1-1.22,4.88c-1.46,2.2-4.51,2.81-7.19,3.18a672.2,672.2,0,0,1-79.8,6.1c-6.35.12-13.79-.49-17-5.86-1.71-2.68-1.83-6.1-1.83-9.27-.61-21.11-1.1-42.22-1.71-63.45-4.39,11.23-8.91,22.82-16.59,32.21-17.33,21.36-47,27.94-74.31,31a208.86,208.86,0,0,0-6.47-25.74c5.62.12,10.86-2.93,15.62-6,12.93-8.42,25.38-17.94,35.26-29.89s17-26.48,18.3-41.85c.74-7.93-.12-15.87-.61-23.8-1.22-22.81,4-48.8,28.19-57.46,9.52-3.42,22-2.45,31.85-2.93A317.29,317.29,0,0,1,461.59,149.09Z" transform="translate(-128.65 -6.44)" fill="#9ab5d4"/>
    <path d="M569.93,320.31a2.77,2.77,0,0,0-1.69-1.13,3.28,3.28,0,0,0-2.28.87c-8.38,6.14-14.22,15.82-14,25.9a7.67,7.67,0,0,0,1.11,4.35c1.5,2.1,4.66,2.67,7.18,1.85a13.12,13.12,0,0,0,6.07-4.79,28.68,28.68,0,0,0,5.62-13.15C572.59,330,572.81,323.83,569.93,320.31Z" transform="translate(-128.65 -6.44)" fill="url(#linear-gradient)"/>
    <path d="M281.21,310.78a2,2,0,0,1,1.24-.87,2.33,2.33,0,0,1,1.67.67c6.13,4.71,10.39,12.13,10.23,19.86a6.09,6.09,0,0,1-.81,3.34,4.62,4.62,0,0,1-5.25,1.42,9.72,9.72,0,0,1-4.44-3.67,22.67,22.67,0,0,1-4.11-10.09C279.27,318.23,279.11,313.48,281.21,310.78Z" transform="translate(-128.65 -6.44)" fill="url(#linear-gradient-2)"/>
    <path d="M370.81,39.76c-6.71,13.79-8.17,29.65-6.59,44.9s6.1,30,10.49,44.78a7.19,7.19,0,0,0,1.84,3.42c1.22,1,2.8.85,4.39.85l13.79-.73a4,4,0,0,0,2.07-.49,3.74,3.74,0,0,0,1-2.56c.24-3.05.48-6,.73-9-1.34,3.3.61,7.2,3.54,9.15s6.71,2.44,10.25,2.44a66.76,66.76,0,0,0,18.42-2.19c.61-3.54,1.22-7.08,1.83-10.74-1,5.12,3.78,9.88,8.91,11s10.37-.49,15.25-2.07a33.72,33.72,0,0,0,1-14.4c-1.09,4,2.08,8.42,6.11,9.64s8.41-.25,11.83-2.69a8.17,8.17,0,0,0,3.66-6.22,111.89,111.89,0,0,0-3.9-62.35c-4.64-12.93-11.84-25.13-22.21-34C425.23-5.38,386.06,8.65,370.81,39.76Z" transform="translate(-128.65 -6.44)" fill="#3f3d56"/>
    <path d="M449.4,151.25a12.59,12.59,0,0,0-.24,3.47c-13.43,15.83-30,6.58-37.11,1.27a29.74,29.74,0,0,0,.71-6.12c1.38-10.53,2.34-18.11.76-22.38.24-.24.48-.61.73-.85,4.39,3.66,9.51,6.34,15,6.46,6.46,0,12.2-3.66,16.59-8.54C446.2,138.19,449.64,150.15,449.4,151.25Z" transform="translate(-128.65 -6.44)" fill="url(#linear-gradient-3)"/>
    <path d="M413.27,127.61l.12-.12c0-.12,0,0-.12.12Z" transform="translate(-128.65 -6.44)" fill="url(#linear-gradient-4)"/>
    <path d="M459.15,80.15c-.37,14.15-2.44,28.79-10.37,40.63a45.32,45.32,0,0,1-2.93,3.78c-4.39,4.88-10.13,8.54-16.59,8.54-5.62,0-10.74-2.8-15-6.46-.12-.13-.25-.13-.37-.25l-.49,1a10.05,10.05,0,0,0-2.44-3.66A77.11,77.11,0,0,1,390.09,86c-3.17-13.91-6.1-26.36,4.76-37.95,6-6.35,14-10.25,22.45-12.45,6.95-1.83,14.52-2.56,21.23-.12,8.3,3,14.4,10.5,17.45,18.79S459.27,71.36,459.15,80.15Z" transform="translate(-128.65 -6.44)" fill="url(#linear-gradient-5)"/>
    <path d="M585.07,432.89a41.9,41.9,0,0,1-22.82,9.88c-80.53,7.57-68.69-7.93-123.36-6.71-2.68.06-5.32.2-7.9.41-50.92,4-86.07,33.72-132,13.75-10.51-4.54-12.73-17.72-11.26-30.59a74.79,74.79,0,0,1,3.82-16.39c5.61-15.62,17.94-28.31,32-37.33A166.38,166.38,0,0,1,353,351.26c7.32-2.92,14.76-6.58,22.69-7.32,23.06-2.32,46.73-1.83,69.79-2.68,13.42-.61,26.85-1.1,40.15-1.59a55.38,55.38,0,0,1,12.69.61,42.55,42.55,0,0,1,9.88,3.91,345.29,345.29,0,0,1,72.11,47.7c6,5.13,12.08,11,13.66,18.79C595.56,418.86,591.41,427.52,585.07,432.89Z" transform="translate(-128.65 -6.44)" fill="#9ab5d4"/>
    <path d="M544.77,413.39l-22.92-1.88a5.77,5.77,0,0,0-3.9.6,11.18,11.18,0,0,0-1.9,2.35c-2.57,3.21-7.46,2.93-11.2,4.63-3.1,1.41-5.33,4.15-7.45,6.81-3.1,3.88-6.33,8.07-6.8,13,4,.82,2.69,2.62,6.67,3.43-21.8-2-44.09-8.47-66.87-5.95,17.07-6.36,26.51-11.59,70.42-26.34,6.27-2.11-5.26-11.07,1-13.26s12.76-2.07,19.25-2c9.35.16,18.75.32,28,1.83,5.21.85,14.17,4,12.29,11C559.56,414.3,549.91,413.82,544.77,413.39Z" transform="translate(-128.65 -6.44)" fill="url(#linear-gradient-6)"/>
    <path d="M502.71,408.12,433.6,434.78,431,436.47c-50.92,4-86.07,33.72-132,13.75-10.51-4.54-12.73-17.72-11.26-30.59,14.47,21.89,38.74,15.15,38.74,15.15C334,438.91,492.69,397,492.69,397c-.68,3.67,8.48,6,8.48,6Z" transform="translate(-128.65 -6.44)" fill="url(#linear-gradient-7)"/>
    <path d="M345,386.55c7-2.37,14.25-9.28,21.55-10.38,4.24-.64,8.29-2.17,12.47-3.14a47.5,47.5,0,0,1,26.66,1.61c2.89,1,5.68,2.37,8.64,3.2a44.54,44.54,0,0,0,12.46,1.29c21.38-.18,37.66-3.65,56.15-14.39,1.28-.75,2.69-1.55,4.16-1.35a13.07,13.07,0,0,1,3.2,1.38c4,1.77,8.54-.68,12.91-1.26,5.12-.68,10.19,1.27,15,3.25,6.37,2.65,18.14,11.53,24.39,14.41,2.32,1.06,4.88,2.42,5.6,4.87-1.85,1.64-4.56,1.71-7,1.69l-28.79-.19c-5.07,0-10.23-.09-15.07-1.63-3.57-1.14-6.86-3.07-10.49-4-4.2-1.12-8.64-.91-13-.55a220.65,220.65,0,0,0-57.47,12.55,59.88,59.88,0,0,1-10.59,3.23c-4.46.73-9,.32-13.52,0q-17.57-1.36-35.2-1.25c-3.85,0-12.54,2.76-16,.59C335.93,393.22,341.29,387.79,345,386.55Z" transform="translate(-128.65 -6.44)" fill="url(#linear-gradient-8)"/>
    <path d="M425.11,438a450.06,450.06,0,0,1,73.57-27.21c1.59-.49,3.54-1.1,4-2.69a4.66,4.66,0,0,0-.12-2.56c-1.71-7.08-5.49-13.42-9.28-19.64-2.56-4.15-5.12-5.86-10.12-5.25a409.36,409.36,0,0,0-74.43,16.47" transform="translate(-128.65 -6.44)" fill="none" stroke="#fff" stroke-miterlimit="10" stroke-width="1.68"/>
    <path d="M505.15,401.9a64.74,64.74,0,0,1,52.46,5.49c2,1.22,4,2.56,6.35,2.68s5-1.34,5.12-3.66c.12-2.07-1.83-3.78-3.66-4.75a21.06,21.06,0,0,0-9-2.44c-2.44-7.81-10.25-12.69-17.81-16s-15.74-6.22-21-12.57c-1.46-1.7-2.93-3.9-5.12-4.14-1.71-.25-3.3.73-4.64,1.7-5.12,3.91-8.29,10.25-14.15,12.94-1.83,3.54-3.05,7.56-1.95,11.34a16.28,16.28,0,0,0,7.07,9.28A7.68,7.68,0,0,0,505.15,401.9Z" transform="translate(-128.65 -6.44)" fill="url(#linear-gradient-9)"/>
    <path d="M403.75,385.06c-2.8-1-5.85,0-8.78.73A48.47,48.47,0,0,1,384.72,387c-3.9,0-7.93-.48-11.84.13a41.52,41.52,0,0,0-8.41,2.68,154,154,0,0,1-23.31,6.59c-2.56.49-5.73,1.46-6.22,4s2.32,4.75,4.88,4.88,5.12-.86,7.69-1.22a30.7,30.7,0,0,1,8.17.36,293.53,293.53,0,0,0,29.41,1.34,32.21,32.21,0,0,0,6.83-.48c3.05-.74,5.73-2.69,8.54-4.15s10.86-3.3,12.08-6.59C413.64,390.92,406.68,386,403.75,385.06Z" transform="translate(-128.65 -6.44)" fill="url(#linear-gradient-10)"/>
    <path d="M417.3,66.24a5.07,5.07,0,0,0,1.34,2.68,5.42,5.42,0,0,0,3.42.74l16.1-.37c2.44,0,5-.12,7.2-1.34s3.78-3.66,3.05-6.1c.12,2.19.12,4.51.25,6.71,5.85.49,11.71,1.1,17.69,1.58-1.34-11.34-3.79-22.69-9.15-32.7s-14-18.66-24.89-22.08A35.83,35.83,0,0,0,400.46,21c-6.1,4.64-10.49,11.11-14.15,17.69-4.4,7.69-8.18,16.48-8.06,25.51.25,12.07,4.52,11,14.28,11.83,4.76.37,12.2,4.39,16.84,2.69,6.95-2.45,5.37-12.69,6.34-18.67C416.2,62.09,416.44,64.53,417.3,66.24Z" transform="translate(-128.65 -6.44)" fill="#3f3d56"/>
    <path d="M392,36.59c9-6.47,20.26-9.52,31.48-10a29.1,29.1,0,0,1,10.25,1.09,34.13,34.13,0,0,1,8.17,4.76,81.87,81.87,0,0,1,11.84,9.64A40.58,40.58,0,0,1,465,71.73c1.7-2.2,2.19-5,2.44-7.81A46.33,46.33,0,0,0,416.2,14.14a56.3,56.3,0,0,0-19.28,6,42,42,0,0,0-7.08,4.27c-6.71,5-11.22,12.57-13.42,20.5-1.34,4.76-2.44,10.37-1.71,15.25,3.06-2,4.15-8.66,6.11-11.84A46.37,46.37,0,0,1,392,36.59Z" transform="translate(-128.65 -6.44)" fill="#9ab5d4"/>
    <path d="M286.34,317.75c-3.17-2.2-15.82-5.65-19.24-7.48-5.61-2.93-11.35-4.52-17.57-1.83-5.49,2.44-9.64,7.93-9.88,13.91-.13,3.41.73,7.32-1.35,10.12a9.9,9.9,0,0,1-3.9,2.81A62.24,62.24,0,0,1,221.34,340a12.67,12.67,0,0,0-4.75,1.95c-1.35,1.1-2,3.3-1,4.64s2.56,1.34,4,1.34a48.93,48.93,0,0,0,15.74-2.56,47.94,47.94,0,0,0-13.06,11.22c3.17,1.47,7,.61,10.37-.24a189.53,189.53,0,0,0,41.73-16.47C283.69,334.91,297.56,325.44,286.34,317.75Zm-25.88,5.74A3.35,3.35,0,0,1,259,325.7a4.54,4.54,0,0,1-1.92.55,4.44,4.44,0,0,1-1.85,0,4.69,4.69,0,0,1-1.49-.94,6.48,6.48,0,0,1-1.93-2.14,5.29,5.29,0,0,1-.34-2.53,6.23,6.23,0,0,1,1.31-3.73c1.13-1.28,2.36-1.14,3.79-.7s2.71.67,3.44,2.21a7.25,7.25,0,0,1,.51,2.4A8.79,8.79,0,0,1,260.46,323.49Z" transform="translate(-128.65 -6.44)" fill="url(#linear-gradient-11)"/>
    <path d="M642.17,344.68c-11.35.61-24.16.73-32.33-7.08-5.37-5-7.81-12.57-13.55-17a17.28,17.28,0,0,0-15.37-2.81c-4.17,1.29-8.67,4.28-10.2,8.24a3.91,3.91,0,0,1-4,2.56h0c-6,1-6.08,4.53-8.77,7.21s-2.3,9-1,12.5c.86,2.19,2.93,3.53,5,4.75a87.78,87.78,0,0,0,43.07,11.84,3.07,3.07,0,0,0,2.32-.61c1-1,.12-2.81-1.1-3.66s-2.69-1.59-3.18-2.93a41.66,41.66,0,0,0,25.75,3.42v-3.42a29.94,29.94,0,0,1-13.18-4.64,63.59,63.59,0,0,0,23.43-3,5.67,5.67,0,0,0,3.42-2C643.39,347.12,643.39,345.29,642.17,344.68Zm-51.28-11.17a4.4,4.4,0,0,1-3.54,2.2,9.22,9.22,0,0,1-4.22-.81,3.36,3.36,0,0,1-2.39-4.45,6.2,6.2,0,0,1,1.3-3.3,5.25,5.25,0,0,1,1.75-1.18c1.86-.84,4.23-1,5.79.33a5.94,5.94,0,0,1,1.78,4.77A6.17,6.17,0,0,1,590.89,333.51Z" transform="translate(-128.65 -6.44)" fill="url(#linear-gradient-12)"/>
  </g>
  <path d="M714.77,575.4c-.12.67-.27,1.35-.45,2-.71,2.64-1.92,5.21-4.07,6.77-4,2.93-9.51,1.46-14.27.12-62.47-18.55-128.48-20.86-193.52-18.18S372.64,576.62,307.61,578c-34.53.73-69.06-.37-103.59-1.47-18.18-.61-36.24-1.1-54.42-1.71-4.76-.12-9.88-.36-14.15-2.56s-7.69-7-6.59-11.71c.73-3.17,3.29-5.62,5.85-7.69,11-8.61,24.71-12.81,37.73-18.2a114.15,114.15,0,0,0,13.64-6.57c21-12.08,37.58-33.92,61.62-36.72,16.71-2,32.94,6.22,49.78,8.05s32.94-2.56,49.29-4.15c14.77-1.71,24.28,1.46,38.07,4.27,34,7.08,75.16,1.59,109-4.88,15.74-3.05,31.36-6.95,47.22-8.66,19.52-2.08,39.17-.49,58.69,1,23.3,1.71,46.49,3.54,69.79,5.37,3,.25,6.22.49,8.66,2.2,2.08,1.34,3.42,3.54,4.64,5.61,5.73,9.52,11.35,18.91,17.08,28.43C708.42,543,717.45,558.81,714.77,575.4Z" transform="translate(-128.65 -6.44)" fill="#9ab5d4"/>
  <path d="M382.52,212.05c1.83,7.56-.85,15.49-3.17,22.93s-4.51,15.62-1.83,22.94c1,2.57,2.32,4.76,3.05,7.45s.25,5.73-1.83,7.32" transform="translate(-128.65 -6.44)" fill="none" stroke="#fff" stroke-miterlimit="10" stroke-width="1.68"/>
  <path d="M490.75,201.31c-4.39,5.61,19.4,25.38,1.46,76.62" transform="translate(-128.65 -6.44)" fill="none" stroke="#fff" stroke-miterlimit="10" stroke-width="1.68"/>
  <path d="M357.76,274.8a96.9,96.9,0,0,1-12,16.72c-11.17,12-26.68,19.09-42.42,23.67-5.66,1.65-12.75,4.74-12.33,10.63.27,3.72,3.88,6.49,7.55,7.09s7.4-.44,11-1.47L326,326.67c11.23-3.25,22.85-6.71,31.62-14.43,8-7.09,12.88-17.09,16.76-27.08,2.8-7.23,5.23-15,3.76-22.62-.7-3.63-2.27-7.05-3-10.68-.8-4-.3-8.38.26-12.35C368.68,250.29,364.46,263.55,357.76,274.8Z" transform="translate(-128.65 -6.44)" fill="url(#linear-gradient-13)"/>
  <path d="M513.42,303.73a78.67,78.67,0,0,0,30,33.59c2.4,1.47,5.23,3.46,5,6.26-.22,2.11-2.33,3.63-4.44,3.87a12.49,12.49,0,0,1-6.16-1.33,73,73,0,0,1-38.57-38.42c-6.08-14.36-8.83-34.76-2.25-49.42,5.16,2.07,6.77,15.72,8.21,20.91C507.47,287.51,509.76,295.88,513.42,303.73Z" transform="translate(-128.65 -6.44)" fill="url(#linear-gradient-14)"/>
  <path d="M393,300.07a151.54,151.54,0,0,0,4.52,18c1.78,6.08,3.78,12.48,8.51,16.69,3.47,3.09,8,4.61,12.51,5.83a10.84,10.84,0,0,1,4,1.7,3.52,3.52,0,0,1,1.31,3.9c-.79,1.86-3.29,2.1-5.31,2a208.79,208.79,0,0,1-33.35-4,6,6,0,0,1-2.28-.8c-1.71-1.19-1.74-3.67-1.59-5.75,1.13-15.21,2-30.23.88-45.47-.19-2.71.49-11.42,5.43-10.07C392,283.37,392.39,296.54,393,300.07Z" transform="translate(-128.65 -6.44)" fill="url(#linear-gradient-15)"/>
  <path d="M445,348.7q32.18-.26,64.32-2c-1.66-3.62-5.78-5.42-9.68-6.18s-8.3-2-12.11-1c-4.57,1.2-9,3.35-13.62,4.59C464.57,346.7,454.61,348.62,445,348.7Z" transform="translate(-128.65 -6.44)" fill="url(#linear-gradient-16)"/>
  <path d="M410.93,152.16s16,20.62,39.85,0l3.21,5s-12.6,19.47-30,12.6S407,155.6,407,155.6Z" transform="translate(-128.65 -6.44)" fill="#9ab5d4"/>
  <path d="M410.93,152.16s16,20.62,39.85,0l3.21,5s-12.6,19.47-30,12.6S407,155.6,407,155.6Z" transform="translate(-128.65 -6.44)" fill="url(#linear-gradient-17)"/>
  <path d="M714.32,577.42c-.71,2.64-1.92,5.21-4.07,6.77-4,2.93-9.51,1.46-14.27.12-62.47-18.55-128.48-20.86-193.52-18.18S372.64,576.62,307.61,578c-34.53.73-69.06-.37-103.59-1.47-18.18-.61-36.24-1.1-54.42-1.71-4.76-.12-9.88-.36-14.15-2.56s-7.69-7-6.59-11.71c.73-3.17,3.29-5.62,5.85-7.69,11-8.61,24.71-12.81,37.73-18.2a297.21,297.21,0,0,1-31.26,24.92c169.65,34.17,347.52-30.32,517.28,3.27,15,3,37.64,3.82,51.18,10.8A13,13,0,0,1,714.32,577.42Z" transform="translate(-128.65 -6.44)" fill="url(#linear-gradient-18)"/>
  <path d="M313.59,505.21c-3.33,1.31-6.78,2.69-9.18,5.34s-3.38,7-1.23,9.81,6.23,3.11,9.78,3.13l162.32,1.11a179.08,179.08,0,0,0,21-.69c18.89-2.12,36.52-10.2,53.77-18.18,2.16-1,4.57-2.29,5.1-4.61.81-3.59-3.34-6.19-6.85-7.26-22.23-6.81-46.08-1.71-69.06,1.76a477.22,477.22,0,0,1-86.78,5.07q-21.75-.72-43.37-3.4C335,495.54,326.7,500.08,313.59,505.21Z" transform="translate(-128.65 -6.44)" fill="url(#linear-gradient-19)"/>
</svg>
